<svg xmlns="http://www.w3.org/2000/svg" viewBox="0 0 600 400" width="600" height="400" role="img"
     aria-label="畑を耕して、作物を育てているイラスト。">
  <style>
    .a { fill: none; stroke: #2f4055; stroke-width: 3; stroke-linecap: round; stroke-linejoin: round; }
    .o { stroke: #2f4055; stroke-width: 2.5; stroke-linecap: round; stroke-linejoin: round; }
    .ground { fill: #edf3ed; stroke: none; }
    .paper { fill: #fffefd; stroke: #2f4055; stroke-width: 2.5; stroke-linejoin: round; }
    .muted { fill: none; stroke: #80909d; stroke-width: 2.5; stroke-dasharray: 7 8; stroke-linecap: round; }
    .ink { fill: #2f4055; stroke: none; }
    text { display: none; }
    .teal { fill: #238b83; } .tealp { fill: #dff4ef; } .teald { fill: #176a66; } .teals { fill: none; stroke: #238b83; stroke-width: 3; stroke-linecap: round; stroke-linejoin: round; }
    .coral { fill: #e86452; } .coralp { fill: #fde9e3; } .corald { fill: #b74338; } .corals { fill: none; stroke: #e86452; stroke-width: 3; stroke-linecap: round; stroke-linejoin: round; }
    .gold { fill: #d99a2b; } .goldp { fill: #fff0c5; } .goldd { fill: #a66b15; } .golds { fill: none; stroke: #d99a2b; stroke-width: 3; stroke-linecap: round; stroke-linejoin: round; }
    .blue { fill: #4e86c6; } .bluep { fill: #e1edfb; } .blued { fill: #315f98; } .blues { fill: none; stroke: #4e86c6; stroke-width: 3; stroke-linecap: round; stroke-linejoin: round; }
    .violet { fill: #816eb2; } .violetp { fill: #eee8fb; } .violetd { fill: #5f4d91; } .violets { fill: none; stroke: #816eb2; stroke-width: 3; stroke-linecap: round; stroke-linejoin: round; }
    .green { fill: #4e986a; } .greenp { fill: #e1f3e5; } .greend { fill: #34734d; } .greens { fill: none; stroke: #4e986a; stroke-width: 3; stroke-linecap: round; stroke-linejoin: round; }
  </style>
  <rect width="600" height="400" rx="20" fill="#fffaf1"/>
  <path d="M0 250h600v150H0z" fill="#e7d9c4"/>
<path d="M0 250h600" class="a"/>
<g fill="none" stroke="#c9a97c" stroke-width="4"><path d="M0 300q120-20 240 0t360-10M0 350q120-20 240 0t360-10"/></g>
<g transform="translate(140 260)"><path d="M0 0v-40" fill="none" stroke="#34734d" stroke-width="6"/><path d="M0-24c-24-6-32-22-32-22 22-6 32 22 32 22z" class="green o"/><path d="M0-40c24-6 32-22 32-22-22-6-32 22-32 22z" class="green o"/></g><g transform="translate(230 260)"><path d="M0 0v-40" fill="none" stroke="#34734d" stroke-width="6"/><path d="M0-24c-24-6-32-22-32-22 22-6 32 22 32 22z" class="green o"/><path d="M0-40c24-6 32-22 32-22-22-6-32 22-32 22z" class="green o"/></g><g transform="translate(320 260)"><path d="M0 0v-40" fill="none" stroke="#34734d" stroke-width="6"/><path d="M0-24c-24-6-32-22-32-22 22-6 32 22 32 22z" class="green o"/><path d="M0-40c24-6 32-22 32-22-22-6-32 22-32 22z" class="green o"/></g><g transform="translate(410 260)"><path d="M0 0v-40" fill="none" stroke="#34734d" stroke-width="6"/><path d="M0-24c-24-6-32-22-32-22 22-6 32 22 32 22z" class="green o"/><path d="M0-40c24-6 32-22 32-22-22-6-32 22-32 22z" class="green o"/></g>
<g transform="translate(120 250) scale(0.8 0.8)"><path d="M-12-8l-7 35M12-8l7 35" fill="none" stroke="#315f98" stroke-width="11" stroke-linecap="round"/><path d="M-25-78q25-13 50 0l-8 72h-34z" fill="#d99a2b" class="o"/><path d="M-22-70l-14 44M22-70l44 5" fill="none" stroke="#f2c29d" stroke-width="10" stroke-linecap="round"/><circle cx="0" cy="-108" r="24" fill="#f2c29d" stroke="#a86f55" stroke-width="2.5"/><path d="M-25-116q8-25 29-21 19 2 23 23z" fill="#4e86c6" stroke="#4e86c6" stroke-width="2"/><circle cx="-8" cy="-104" r="2.2" class="ink"/><circle cx="8" cy="-104" r="2.2" class="ink"/><path d="M-7-92h14" fill="none" stroke="#2f4055" stroke-width="2"/></g>
</svg>
