<svg xmlns="http://www.w3.org/2000/svg" viewBox="0 0 600 400" width="600" height="400" role="img"
     aria-label="投げたボールをくわえて、犬が飼い主のところへ走ってくる">
  <style>
    .a { fill: none; stroke: #2f4055; stroke-width: 3; stroke-linecap: round; stroke-linejoin: round; }
    .o { stroke: #2f4055; stroke-width: 2.5; stroke-linecap: round; stroke-linejoin: round; }
    .ground { fill: #edf3ed; stroke: none; }
    .paper { fill: #fffefd; stroke: #2f4055; stroke-width: 2.5; stroke-linejoin: round; }
    .muted { fill: none; stroke: #80909d; stroke-width: 2.5; stroke-dasharray: 7 8; stroke-linecap: round; }
    .ink { fill: #2f4055; stroke: none; }
    text { display: none; }
    .teal { fill: #238b83; } .tealp { fill: #dff4ef; } .teald { fill: #176a66; } .teals { fill: none; stroke: #238b83; stroke-width: 3; stroke-linecap: round; stroke-linejoin: round; }
    .coral { fill: #e86452; } .coralp { fill: #fde9e3; } .corald { fill: #b74338; } .corals { fill: none; stroke: #e86452; stroke-width: 3; stroke-linecap: round; stroke-linejoin: round; }
    .gold { fill: #d99a2b; } .goldp { fill: #fff0c5; } .goldd { fill: #a66b15; } .golds { fill: none; stroke: #d99a2b; stroke-width: 3; stroke-linecap: round; stroke-linejoin: round; }
    .blue { fill: #4e86c6; } .bluep { fill: #e1edfb; } .blued { fill: #315f98; } .blues { fill: none; stroke: #4e86c6; stroke-width: 3; stroke-linecap: round; stroke-linejoin: round; }
    .violet { fill: #816eb2; } .violetp { fill: #eee8fb; } .violetd { fill: #5f4d91; } .violets { fill: none; stroke: #816eb2; stroke-width: 3; stroke-linecap: round; stroke-linejoin: round; }
    .green { fill: #4e986a; } .greenp { fill: #e1f3e5; } .greend { fill: #34734d; } .greens { fill: none; stroke: #4e986a; stroke-width: 3; stroke-linecap: round; stroke-linejoin: round; }
  </style>
  <defs><marker id="ar" viewBox="0 0 10 10" refX="8" refY="5" markerWidth="6" markerHeight="6" orient="auto-start-reverse"><path d="M1 1l8 4-8 4z" fill="#2f4055"/></marker></defs>
  <rect width="600" height="400" rx="20" fill="#fffaf1"/>
  <path d="M0 306h600v94H0z" class="ground"/>
  <g transform="translate(140 356) scale(1.1 1.1)"><path d="M-12-8l-7 35M12-8l7 35" fill="none" stroke="#315f98" stroke-width="11" stroke-linecap="round"/><path d="M-25-78q25-13 50 0l-8 72h-34z" fill="#238b83" class="o"/><path d="M-22-70l-16 45M22-70l46 6" fill="none" stroke="#f2c29d" stroke-width="10" stroke-linecap="round"/><circle cx="0" cy="-108" r="24" fill="#f2c29d" stroke="#a86f55" stroke-width="2.5"/><path d="M-24-109q3-28 25-28 24 0 28 25-13-10-27-4-12-11-26 7z" fill="#34475a" stroke="#34475a" stroke-width="2"/><circle cx="-8" cy="-104" r="2.2" class="ink"/><circle cx="8" cy="-104" r="2.2" class="ink"/><path d="M-8-94q8 8 16 0" fill="none" stroke="#2f4055" stroke-width="2"/></g>
<g transform="translate(372 328) scale(-0.55 0.55)"><path d="M-96 0l-16 48M-40 0l-12 46M40 0l12 46M92 0l18 46" fill="none" stroke="#8a6a46" stroke-width="15" stroke-linecap="round"/><path d="M-110-20q-20-56 30-76 60-24 130-6 60 16 62 56 2 40-60 46-110 10-162-20z" fill="#8a6a46" stroke="#2f4055" stroke-width="2.5"/><path d="M96-56q24-30 56-14 30 16 14 46-14 26-46 22z" fill="#8a6a46" stroke="#2f4055" stroke-width="2.5"/><path d="M150-46l40 4-38 18z" fill="#8a6a46" stroke="#2f4055" stroke-width="2.5"/><path d="M108-70l-6-34 30 22zM140-74l14-32 12 30z" fill="#8a6a46" stroke="#2f4055" stroke-width="2.5"/><circle cx="140" cy="-44" r="5" fill="#fffdf6"/><path d="M-110-30q-46-6-56-46 40 0 58 30z" fill="#8a6a46" stroke="#2f4055" stroke-width="2.5"/></g>
<circle cx="278" cy="298" r="15" class="coral o"/>
<path d="M300 262Q234.0 186.0 168 250" fill="none" stroke="#80909d" stroke-width="4" stroke-linecap="round" stroke-dasharray="10 9" marker-end="url(#ar)"/>
<path d="M60 386h480" class="a"/>
</svg>
