<svg xmlns="http://www.w3.org/2000/svg" viewBox="0 0 600 400" width="600" height="400" role="img"
     aria-label="赤ちゃんが高い食事椅子に座っているイラスト。">
  <style>
    .a { fill: none; stroke: #2f4055; stroke-width: 3; stroke-linecap: round; stroke-linejoin: round; }
    .o { stroke: #2f4055; stroke-width: 2.5; stroke-linecap: round; stroke-linejoin: round; }
    .ground { fill: #edf3ed; stroke: none; }
    .paper { fill: #fffefd; stroke: #2f4055; stroke-width: 2.5; stroke-linejoin: round; }
    .muted { fill: none; stroke: #80909d; stroke-width: 2.5; stroke-dasharray: 7 8; stroke-linecap: round; }
    .ink { fill: #2f4055; stroke: none; }
    text { display: none; }
    .teal { fill: #238b83; } .tealp { fill: #dff4ef; } .teald { fill: #176a66; } .teals { fill: none; stroke: #238b83; stroke-width: 3; stroke-linecap: round; stroke-linejoin: round; }
    .coral { fill: #e86452; } .coralp { fill: #fde9e3; } .corald { fill: #b74338; } .corals { fill: none; stroke: #e86452; stroke-width: 3; stroke-linecap: round; stroke-linejoin: round; }
    .gold { fill: #d99a2b; } .goldp { fill: #fff0c5; } .goldd { fill: #a66b15; } .golds { fill: none; stroke: #d99a2b; stroke-width: 3; stroke-linecap: round; stroke-linejoin: round; }
    .blue { fill: #4e86c6; } .bluep { fill: #e1edfb; } .blued { fill: #315f98; } .blues { fill: none; stroke: #4e86c6; stroke-width: 3; stroke-linecap: round; stroke-linejoin: round; }
    .violet { fill: #816eb2; } .violetp { fill: #eee8fb; } .violetd { fill: #5f4d91; } .violets { fill: none; stroke: #816eb2; stroke-width: 3; stroke-linecap: round; stroke-linejoin: round; }
    .green { fill: #4e986a; } .greenp { fill: #e1f3e5; } .greend { fill: #34734d; } .greens { fill: none; stroke: #4e986a; stroke-width: 3; stroke-linecap: round; stroke-linejoin: round; }
  </style>
  <rect width="600" height="400" rx="20" fill="#fffaf1"/>
  <path d="M0 306h600v94H0z" class="ground"/>
  <g transform="translate(300 356)">
  <path d="M-90 0l-16-70M90 0l18-70" fill="none" stroke="#8b6437" stroke-width="13" stroke-linecap="round"/>
  <path d="M-100-34h196" fill="none" stroke="#8b6437" stroke-width="9" stroke-linecap="round"/>
  <path d="M-118-70h236v18h-236z" class="goldd o"/>
  <path d="M64-186h26v116H64z" class="gold o"/>
</g>
<g transform="translate(268 212)">
  <circle r="36" fill="#f2c29d" stroke="#a86f55" stroke-width="3"/>
  <path d="M-26-18q8-16 26-16t26 16" fill="none" stroke="#34475a" stroke-width="7" stroke-linecap="round"/>
  <circle cx="-12" cy="-4" r="3.4" class="ink"/><circle cx="12" cy="-4" r="3.4" class="ink"/>
  <path d="M-12 14q12 12 24 0" fill="none" stroke="#2f4055" stroke-width="3" stroke-linecap="round"/>
  <path d="M-30 44q30 18 60 0v36h-60z" class="teal o"/>
  <path d="M-32 36l-26-40M32 36l26-44" fill="none" stroke="#f2c29d" stroke-width="11" stroke-linecap="round"/>
</g>
<g transform="translate(300 278)">
  <path d="M-150 0h300v16h-300z" class="goldd o"/>
</g>
<path d="M60 386h480" class="a"/>
</svg>
