<svg xmlns="http://www.w3.org/2000/svg" viewBox="0 0 600 400" width="600" height="400" role="img"
     aria-label="わざわざ言うまでもなく、みんな分かっている">
  <style>
    .a { fill: none; stroke: #2f4055; stroke-width: 3; stroke-linecap: round; stroke-linejoin: round; }
    .o { stroke: #2f4055; stroke-width: 2.5; stroke-linecap: round; stroke-linejoin: round; }
    .ground { fill: #edf3ed; stroke: none; }
    .paper { fill: #fffefd; stroke: #2f4055; stroke-width: 2.5; stroke-linejoin: round; }
    .muted { fill: none; stroke: #80909d; stroke-width: 2.5; stroke-dasharray: 7 8; stroke-linecap: round; }
    .ink { fill: #2f4055; stroke: none; }
    text { display: none; }
    .teal { fill: #238b83; } .tealp { fill: #dff4ef; } .teald { fill: #176a66; } .teals { fill: none; stroke: #238b83; stroke-width: 3; stroke-linecap: round; stroke-linejoin: round; }
    .coral { fill: #e86452; } .coralp { fill: #fde9e3; } .corald { fill: #b74338; } .corals { fill: none; stroke: #e86452; stroke-width: 3; stroke-linecap: round; stroke-linejoin: round; }
    .gold { fill: #d99a2b; } .goldp { fill: #fff0c5; } .goldd { fill: #a66b15; } .golds { fill: none; stroke: #d99a2b; stroke-width: 3; stroke-linecap: round; stroke-linejoin: round; }
    .blue { fill: #4e86c6; } .bluep { fill: #e1edfb; } .blued { fill: #315f98; } .blues { fill: none; stroke: #4e86c6; stroke-width: 3; stroke-linecap: round; stroke-linejoin: round; }
    .violet { fill: #816eb2; } .violetp { fill: #eee8fb; } .violetd { fill: #5f4d91; } .violets { fill: none; stroke: #816eb2; stroke-width: 3; stroke-linecap: round; stroke-linejoin: round; }
    .green { fill: #4e986a; } .greenp { fill: #e1f3e5; } .greend { fill: #34734d; } .greens { fill: none; stroke: #4e986a; stroke-width: 3; stroke-linecap: round; stroke-linejoin: round; }
  </style>
  <defs><marker id="ar" viewBox="0 0 10 10" refX="8" refY="5" markerWidth="6" markerHeight="6" orient="auto-start-reverse"><path d="M1 1l8 4-8 4z" fill="#2f4055"/></marker></defs>
  <rect width="600" height="400" rx="20" fill="#fffaf1"/>
  <path d="M0 306h600v94H0z" class="ground"/>
  <circle cx="300" cy="110" r="56" class="goldp o"/><g class="golds"><path d="M300 40v-16" transform="rotate(0 300 110)"/><path d="M300 40v-16" transform="rotate(45 300 110)"/><path d="M300 40v-16" transform="rotate(90 300 110)"/><path d="M300 40v-16" transform="rotate(135 300 110)"/><path d="M300 40v-16" transform="rotate(180 300 110)"/><path d="M300 40v-16" transform="rotate(225 300 110)"/><path d="M300 40v-16" transform="rotate(270 300 110)"/><path d="M300 40v-16" transform="rotate(315 300 110)"/></g>
<g transform="translate(100 330)"><g transform="translate(0 0)"><circle r="26" fill="#f2c29d" stroke="#a86f55" stroke-width="2.5"/><path d="M-24-109q3-28 25-28 24 0 28 25-13-10-27-4-12-11-26 7z" transform="translate(0 108) scale(1.08)" fill="#34475a"/><circle cx="-9" cy="-4" r="2.4" fill="#2f4055"/><circle cx="9" cy="-4" r="2.4" fill="#2f4055"/><path d="M-8 9q8 8 16 0" fill="none" stroke="#2f4055" stroke-width="2"/><path d="M-29 39q29-16 57 0l-8 31h-42z" fill="#238b83" class="o"/></g></g><g transform="translate(200 330)"><g transform="translate(0 0)"><circle r="26" fill="#f2c29d" stroke="#a86f55" stroke-width="2.5"/><path d="M-29-108q1-31 29-31t30 31v23l-11-9v-18q-20 9-40 0v20l-8 8z" transform="translate(0 108) scale(1.08)" fill="#34475a"/><circle cx="-9" cy="-4" r="2.4" fill="#2f4055"/><circle cx="9" cy="-4" r="2.4" fill="#2f4055"/><path d="M-8 9q8 8 16 0" fill="none" stroke="#2f4055" stroke-width="2"/><path d="M-29 39q29-16 57 0l-8 31h-42z" fill="#e86452" class="o"/></g></g><g transform="translate(300 330)"><g transform="translate(0 0)"><circle r="26" fill="#f2c29d" stroke="#a86f55" stroke-width="2.5"/><path d="M-24-109q3-28 25-28 24 0 28 25-13-10-27-4-12-11-26 7z" transform="translate(0 108) scale(1.08)" fill="#34475a"/><circle cx="-9" cy="-4" r="2.4" fill="#2f4055"/><circle cx="9" cy="-4" r="2.4" fill="#2f4055"/><path d="M-8 9q8 8 16 0" fill="none" stroke="#2f4055" stroke-width="2"/><path d="M-29 39q29-16 57 0l-8 31h-42z" fill="#4e986a" class="o"/></g></g><g transform="translate(400 330)"><g transform="translate(0 0)"><circle r="26" fill="#f2c29d" stroke="#a86f55" stroke-width="2.5"/><path d="M-26-111q3-28 27-28 22 0 27 27-15-13-28-3-12-9-26 4z" transform="translate(0 108) scale(1.08)" fill="#34475a"/><circle cx="-9" cy="-4" r="2.4" fill="#2f4055"/><circle cx="9" cy="-4" r="2.4" fill="#2f4055"/><path d="M-8 9q8 8 16 0" fill="none" stroke="#2f4055" stroke-width="2"/><path d="M-29 39q29-16 57 0l-8 31h-42z" fill="#d99a2b" class="o"/></g></g><g transform="translate(500 330)"><g transform="translate(0 0)"><circle r="26" fill="#f2c29d" stroke="#a86f55" stroke-width="2.5"/><path d="M-25-116q8-25 29-21 19 2 23 23z" transform="translate(0 108) scale(1.08)" fill="#34475a"/><circle cx="-9" cy="-4" r="2.4" fill="#2f4055"/><circle cx="9" cy="-4" r="2.4" fill="#2f4055"/><path d="M-8 9q8 8 16 0" fill="none" stroke="#2f4055" stroke-width="2"/><path d="M-29 39q29-16 57 0l-8 31h-42z" fill="#816eb2" class="o"/></g></g>
<path d="M100 280a40 40 0 0 0 0-30" fill="none" class="a" stroke-width="4" marker-end="url(#ar)"/><path d="M200 280a40 40 0 0 0 0-30" fill="none" class="a" stroke-width="4" marker-end="url(#ar)"/><path d="M300 280a40 40 0 0 0 0-30" fill="none" class="a" stroke-width="4" marker-end="url(#ar)"/><path d="M400 280a40 40 0 0 0 0-30" fill="none" class="a" stroke-width="4" marker-end="url(#ar)"/><path d="M500 280a40 40 0 0 0 0-30" fill="none" class="a" stroke-width="4" marker-end="url(#ar)"/>
<g transform="translate(300 220)"><rect x="-80" y="-30" width="160" height="60" rx="16" fill="none" stroke="#80909d" stroke-width="4" stroke-dasharray="11 9"/></g>
</svg>
