<svg xmlns="http://www.w3.org/2000/svg" viewBox="0 0 600 400" width="600" height="400" role="img"
     aria-label="ベルの印がともって、知らせが届く">
  <style>
    .a { fill: none; stroke: #2f4055; stroke-width: 3; stroke-linecap: round; stroke-linejoin: round; }
    .o { stroke: #2f4055; stroke-width: 2.5; stroke-linecap: round; stroke-linejoin: round; }
    .ground { fill: #edf3ed; stroke: none; }
    .paper { fill: #fffefd; stroke: #2f4055; stroke-width: 2.5; stroke-linejoin: round; }
    .muted { fill: none; stroke: #80909d; stroke-width: 2.5; stroke-dasharray: 7 8; stroke-linecap: round; }
    .ink { fill: #2f4055; stroke: none; }
    text { display: none; }
    .teal { fill: #238b83; } .tealp { fill: #dff4ef; } .teald { fill: #176a66; } .teals { fill: none; stroke: #238b83; stroke-width: 3; stroke-linecap: round; stroke-linejoin: round; }
    .coral { fill: #e86452; } .coralp { fill: #fde9e3; } .corald { fill: #b74338; } .corals { fill: none; stroke: #e86452; stroke-width: 3; stroke-linecap: round; stroke-linejoin: round; }
    .gold { fill: #d99a2b; } .goldp { fill: #fff0c5; } .goldd { fill: #a66b15; } .golds { fill: none; stroke: #d99a2b; stroke-width: 3; stroke-linecap: round; stroke-linejoin: round; }
    .blue { fill: #4e86c6; } .bluep { fill: #e1edfb; } .blued { fill: #315f98; } .blues { fill: none; stroke: #4e86c6; stroke-width: 3; stroke-linecap: round; stroke-linejoin: round; }
    .violet { fill: #816eb2; } .violetp { fill: #eee8fb; } .violetd { fill: #5f4d91; } .violets { fill: none; stroke: #816eb2; stroke-width: 3; stroke-linecap: round; stroke-linejoin: round; }
    .green { fill: #4e986a; } .greenp { fill: #e1f3e5; } .greend { fill: #34734d; } .greens { fill: none; stroke: #4e986a; stroke-width: 3; stroke-linecap: round; stroke-linejoin: round; }
  </style>
  <rect width="600" height="400" rx="20" fill="#fffaf1"/>
  <path d="M0 306h600v94H0z" class="ground"/>
  <g transform="translate(300 210)"><rect x="-130" y="-190" width="260" height="380" rx="26" class="teald o"/>
  <rect x="-110" y="-160" width="220" height="310" rx="6" fill="#f4f7f8"/>
  <g transform="translate(0 -40)"><path d="M0-60q46 0 46 60 0 24 14 30h-120q14-6 14-30 0-60 46-60z" class="goldp o"/>
    <path d="M0-60v-16" fill="none" stroke="#2f4055" stroke-width="5"/>
    <path d="M-16 34q16 20 32 0" fill="none" stroke="#2f4055" stroke-width="5"/></g>
  <circle cx="40" cy="-96" r="20" class="coral o"/>
  <rect x="-80" y="40" width="160" height="14" rx="7" fill="#80909d"/><rect x="-80" y="76" width="110" height="14" rx="7" fill="#80909d"/><rect x="-80" y="112" width="160" height="14" rx="7" fill="#80909d"/></g>
<path d="M160 100q-16 16 0 32" fill="none" stroke="#e86452" stroke-width="5"/><path d="M136 78q-16 16 0 32" fill="none" stroke="#e86452" stroke-width="5"/>
</svg>
