<svg xmlns="http://www.w3.org/2000/svg" viewBox="0 0 600 400" width="600" height="400" role="img"
     aria-label="心の病を診る医学のイラスト。">
  <style>
    .a { fill: none; stroke: #2f4055; stroke-width: 3; stroke-linecap: round; stroke-linejoin: round; }
    .o { stroke: #2f4055; stroke-width: 2.5; stroke-linecap: round; stroke-linejoin: round; }
    .ground { fill: #edf3ed; stroke: none; }
    .paper { fill: #fffefd; stroke: #2f4055; stroke-width: 2.5; stroke-linejoin: round; }
    .muted { fill: none; stroke: #80909d; stroke-width: 2.5; stroke-dasharray: 7 8; stroke-linecap: round; }
    .ink { fill: #2f4055; stroke: none; }
    text { display: none; }
    .teal { fill: #238b83; } .tealp { fill: #dff4ef; } .teald { fill: #176a66; } .teals { fill: none; stroke: #238b83; stroke-width: 3; stroke-linecap: round; stroke-linejoin: round; }
    .coral { fill: #e86452; } .coralp { fill: #fde9e3; } .corald { fill: #b74338; } .corals { fill: none; stroke: #e86452; stroke-width: 3; stroke-linecap: round; stroke-linejoin: round; }
    .gold { fill: #d99a2b; } .goldp { fill: #fff0c5; } .goldd { fill: #a66b15; } .golds { fill: none; stroke: #d99a2b; stroke-width: 3; stroke-linecap: round; stroke-linejoin: round; }
    .blue { fill: #4e86c6; } .bluep { fill: #e1edfb; } .blued { fill: #315f98; } .blues { fill: none; stroke: #4e86c6; stroke-width: 3; stroke-linecap: round; stroke-linejoin: round; }
    .violet { fill: #816eb2; } .violetp { fill: #eee8fb; } .violetd { fill: #5f4d91; } .violets { fill: none; stroke: #816eb2; stroke-width: 3; stroke-linecap: round; stroke-linejoin: round; }
    .green { fill: #4e986a; } .greenp { fill: #e1f3e5; } .greend { fill: #34734d; } .greens { fill: none; stroke: #4e986a; stroke-width: 3; stroke-linecap: round; stroke-linejoin: round; }
  </style>
  <rect width="600" height="400" rx="20" fill="#fffaf1"/>
  <path d="M0 306h600v94H0z" class="ground"/>
  <g transform="translate(230 230)">
  <path d="M-30 140v-40q-70-16-70-90 0-90 90-90 92 0 92 86 0 44-36 62v72z" fill="#f2c29d" stroke="#a86f55" stroke-width="3"/>
</g>
<g fill="#e86452" stroke="#b74338" stroke-width="2.5">
  <path d="M230 200q-26-34 0-48 26-14 26 20 0-34 26-20 26 14 0 48l-26 26z"/>
</g>
<g transform="translate(460 240)">
  <path d="M-70-90h140v180h-140z" class="paper"/>
  <path d="M-14-70h28v20h20v28h-20v20h-28v-20h-20v-28h20z" class="coralp o"/>
  <g fill="none" stroke="#80909d" stroke-width="4"><path d="M-44 20h88M-44 50h60"/></g>
</g>
<path d="M60 386h480" class="a"/>
</svg>
