<svg xmlns="http://www.w3.org/2000/svg" viewBox="0 0 600 400" width="600" height="400" role="img"
     aria-label="太い雲から細い漏斗がのびて地上に達し、木や瓦が巻き上げられているイラスト。">
  <style>
    .a { fill: none; stroke: #2f4055; stroke-width: 3; stroke-linecap: round; stroke-linejoin: round; }
    .o { stroke: #2f4055; stroke-width: 2.5; stroke-linecap: round; stroke-linejoin: round; }
    .ground { fill: #edf3ed; stroke: none; }
    .paper { fill: #fffefd; stroke: #2f4055; stroke-width: 2.5; stroke-linejoin: round; }
    .muted { fill: none; stroke: #80909d; stroke-width: 2.5; stroke-dasharray: 7 8; stroke-linecap: round; }
    .ink { fill: #2f4055; stroke: none; }
    text { display: none; }
    .teal { fill: #238b83; } .tealp { fill: #dff4ef; } .teald { fill: #176a66; } .teals { fill: none; stroke: #238b83; stroke-width: 3; stroke-linecap: round; stroke-linejoin: round; }
    .coral { fill: #e86452; } .coralp { fill: #fde9e3; } .corald { fill: #b74338; } .corals { fill: none; stroke: #e86452; stroke-width: 3; stroke-linecap: round; stroke-linejoin: round; }
    .gold { fill: #d99a2b; } .goldp { fill: #fff0c5; } .goldd { fill: #a66b15; } .golds { fill: none; stroke: #d99a2b; stroke-width: 3; stroke-linecap: round; stroke-linejoin: round; }
    .blue { fill: #4e86c6; } .bluep { fill: #e1edfb; } .blued { fill: #315f98; } .blues { fill: none; stroke: #4e86c6; stroke-width: 3; stroke-linecap: round; stroke-linejoin: round; }
    .violet { fill: #816eb2; } .violetp { fill: #eee8fb; } .violetd { fill: #5f4d91; } .violets { fill: none; stroke: #816eb2; stroke-width: 3; stroke-linecap: round; stroke-linejoin: round; }
    .green { fill: #4e986a; } .greenp { fill: #e1f3e5; } .greend { fill: #34734d; } .greens { fill: none; stroke: #4e986a; stroke-width: 3; stroke-linecap: round; stroke-linejoin: round; }
  </style>
  <rect width="600" height="400" rx="20" fill="#fffaf1"/>
  <path d="M0 306h600v94H0z" class="ground"/>
  <g transform="translate(300 76) scale(1.7)"><path d="M-52 16q-5-25 19-31 8-31 39-20 17 2 22 20 28-3 30 22 1 22-24 24h-66q-17-1-20-15z" class="violetp o"/></g>
<g fill="none" stroke="#816eb2" stroke-width="14" stroke-linecap="round">
  <path d="M176 148q124 26 248 0"/>
  <path d="M204 196q96 24 192 0"/>
  <path d="M232 244q68 20 136 0"/>
  <path d="M256 288q44 16 88 0"/>
</g>
<g transform="translate(112 350) rotate(-24)">
  <path d="M-8 0h16v-80h-16z" class="goldd"/>
  <circle cy="-96" r="36" class="greenp o"/>
</g>
<g fill="#80909d">
  <rect x="432" y="152" width="24" height="15" rx="3" transform="rotate(22 444 159)"/>
  <rect x="474" y="238" width="19" height="13" rx="3" transform="rotate(-32 483 244)"/>
  <rect x="398" y="300" width="21" height="14" rx="3" transform="rotate(42 408 307)"/>
</g>
<path d="M60 386h480" class="a"/>
</svg>
