<svg xmlns="http://www.w3.org/2000/svg" viewBox="0 0 600 400" width="600" height="400" role="img"
     aria-label="角も継ぎ目もきれいにそろった、丁寧な仕上がりの椅子">
  <style>
    .a { fill: none; stroke: #2f4055; stroke-width: 3; stroke-linecap: round; stroke-linejoin: round; }
    .o { stroke: #2f4055; stroke-width: 2.5; stroke-linecap: round; stroke-linejoin: round; }
    .ground { fill: #edf3ed; stroke: none; }
    .paper { fill: #fffefd; stroke: #2f4055; stroke-width: 2.5; stroke-linejoin: round; }
    .muted { fill: none; stroke: #80909d; stroke-width: 2.5; stroke-dasharray: 7 8; stroke-linecap: round; }
    .ink { fill: #2f4055; stroke: none; }
    text { display: none; }
    .teal { fill: #238b83; } .tealp { fill: #dff4ef; } .teald { fill: #176a66; } .teals { fill: none; stroke: #238b83; stroke-width: 3; stroke-linecap: round; stroke-linejoin: round; }
    .coral { fill: #e86452; } .coralp { fill: #fde9e3; } .corald { fill: #b74338; } .corals { fill: none; stroke: #e86452; stroke-width: 3; stroke-linecap: round; stroke-linejoin: round; }
    .gold { fill: #d99a2b; } .goldp { fill: #fff0c5; } .goldd { fill: #a66b15; } .golds { fill: none; stroke: #d99a2b; stroke-width: 3; stroke-linecap: round; stroke-linejoin: round; }
    .blue { fill: #4e86c6; } .bluep { fill: #e1edfb; } .blued { fill: #315f98; } .blues { fill: none; stroke: #4e86c6; stroke-width: 3; stroke-linecap: round; stroke-linejoin: round; }
    .violet { fill: #816eb2; } .violetp { fill: #eee8fb; } .violetd { fill: #5f4d91; } .violets { fill: none; stroke: #816eb2; stroke-width: 3; stroke-linecap: round; stroke-linejoin: round; }
    .green { fill: #4e986a; } .greenp { fill: #e1f3e5; } .greend { fill: #34734d; } .greens { fill: none; stroke: #4e986a; stroke-width: 3; stroke-linecap: round; stroke-linejoin: round; }
  </style>
  <rect width="600" height="400" rx="20" fill="#fffaf1"/>
  <path d="M0 306h600v94H0z" class="ground"/>
  <path d="M40 352h520v20H40z" fill="#c9a464" class="o"/><path d="M80 372v60M520 372v60" stroke="#a0764a" stroke-width="14" stroke-linecap="round" fill="none"/>
<g transform="translate(300 300) scale(1.6 1.6)"><path d="M-46-24v24M46-24v24" fill="none" stroke="#a66b15" stroke-width="11" stroke-linecap="round"/><path d="M-54-42h108v20h-108z" fill="#d99a2b" class="o"/><path d="M-54-42v-92h20v92z" fill="#d99a2b" class="o"/><path d="M-58-134h28v16h-28z" fill="#a66b15" class="o"/></g>
<path d="M140 117.2l4.0 8.8 8.8 4.0-8.8 4.0-4.0 8.8-4.0-8.8-8.8-4.0 8.8-4.0z" class="gold o"/><path d="M460 157.2l4.0 8.8 8.8 4.0-8.8 4.0-4.0 8.8-4.0-8.8-8.8-4.0 8.8-4.0z" class="gold o"/>
<g transform="translate(480 250)">
  <circle r="40" fill="none" stroke="#2f4055" stroke-width="6"/>
  <path d="M28 28l36 36" stroke="#8b6437" stroke-width="12" stroke-linecap="round" fill="none"/>
  <g fill="none" stroke="#4e986a" stroke-width="2.6999999999999997" stroke-linecap="round" stroke-linejoin="round"><path d="M-9.0 0l6.6 7.199999999999999 12.6-15.6"/></g></g>
</svg>
