<svg xmlns="http://www.w3.org/2000/svg" viewBox="0 0 600 400" width="600" height="400" role="img"
     aria-label="眉を寄せて、心配そうな表情の顔のイラスト。">
  <style>
    .a { fill: none; stroke: #2f4055; stroke-width: 3; stroke-linecap: round; stroke-linejoin: round; }
    .o { stroke: #2f4055; stroke-width: 2.5; stroke-linecap: round; stroke-linejoin: round; }
    .ground { fill: #edf3ed; stroke: none; }
    .paper { fill: #fffefd; stroke: #2f4055; stroke-width: 2.5; stroke-linejoin: round; }
    .muted { fill: none; stroke: #80909d; stroke-width: 2.5; stroke-dasharray: 7 8; stroke-linecap: round; }
    .ink { fill: #2f4055; stroke: none; }
    text { display: none; }
    .teal { fill: #238b83; } .tealp { fill: #dff4ef; } .teald { fill: #176a66; } .teals { fill: none; stroke: #238b83; stroke-width: 3; stroke-linecap: round; stroke-linejoin: round; }
    .coral { fill: #e86452; } .coralp { fill: #fde9e3; } .corald { fill: #b74338; } .corals { fill: none; stroke: #e86452; stroke-width: 3; stroke-linecap: round; stroke-linejoin: round; }
    .gold { fill: #d99a2b; } .goldp { fill: #fff0c5; } .goldd { fill: #a66b15; } .golds { fill: none; stroke: #d99a2b; stroke-width: 3; stroke-linecap: round; stroke-linejoin: round; }
    .blue { fill: #4e86c6; } .bluep { fill: #e1edfb; } .blued { fill: #315f98; } .blues { fill: none; stroke: #4e86c6; stroke-width: 3; stroke-linecap: round; stroke-linejoin: round; }
    .violet { fill: #816eb2; } .violetp { fill: #eee8fb; } .violetd { fill: #5f4d91; } .violets { fill: none; stroke: #816eb2; stroke-width: 3; stroke-linecap: round; stroke-linejoin: round; }
    .green { fill: #4e986a; } .greenp { fill: #e1f3e5; } .greend { fill: #34734d; } .greens { fill: none; stroke: #4e986a; stroke-width: 3; stroke-linecap: round; stroke-linejoin: round; }
  </style>
  <rect width="600" height="400" rx="20" fill="#fffaf1"/>
  <g transform="translate(280 200)"><circle r="120" fill="#f2c29d" stroke="#a86f55" stroke-width="3"/><circle cx="-40.800000000000004" cy="-21.599999999999998" r="9.0" class="ink"/><circle cx="40.800000000000004" cy="-21.599999999999998" r="9.0" class="ink"/><path d="M-45.6 36.0h91.2" fill="none" stroke="#2f4055" stroke-width="8.4" stroke-linecap="round" stroke-linejoin="round"/></g>
<g fill="none" stroke="#2f4055" stroke-width="5"><path d="M232 148q20-16 36-6M328 148q-20-16-36-6"/></g>
<g transform="translate(460 120) scale(1.2)"><path d="M-52 16q-5-25 19-31 8-31 39-20 17 2 22 20 28-3 30 22 1 22-24 24h-66q-17-1-20-15z" class="violetp o"/></g>
<g class="muted"><path d="M460 160v26M492 168v22"/></g>
</svg>
